<svg xmlns="http://www.w3.org/2000/svg" viewBox="0 0 256 256" width="32" height="32">
  <path fill="#ffffff" stroke="#00ffff" stroke-miterlimit="100" stroke-width="5" fill-rule="evenodd"
        d="M127.78 253.16c-69.24 0-125.22-55.98-125.22-125.22 0-69.25 55.98-125.22 125.22-125.22 69.25 0 125.22 55.97 125.22 125.22 0 69.24-55.97 125.22-125.22 125.22z"/>
  <path fill="#560591"
        d="M139.6 249q-9.8 0-19.1-4.7-9.2-5-16.6-16.4-7.2-11.7-11.5-32.8-4.4-21.1-4.4-53.3 0-45.9 6.3-75 6.4-29.5 19.2-43.6 13.1-14.4 33.1-14.4 7.4 0 14.8 3 7.6 3.1 12.6 8.4 5.3 5.4 5.3 12.7 0 3.4-1.3 6.7-1.4 3.1-2.9 5.1-1.5 2-2.6 2.3-7-14.4-13.5-19.4-6.5-5.4-12.8-5.4-10.7 0-17.9 7.1-7 7-11.3 19.4-4.2 12-6.3 27.8-2.2 15.7-3.1 32.8-.6 17.1-.6 33.9 0 19.4 1.7 36.5 1.8 16.7 5.5 29.8 3.9 13.1 10.2 20.4 6.5 7.1 15.9 7.1 11.1 0 17.4-9.4 6.5-9.7 9.4-25.1 3-15.5 3-31.9 0-25.4-7.2-40.2-6.9-14.7-20.7-14.7-9.1 0-16.7 6.4-7.4 6.3-12.9 17.7-5.4 11.4-8 26.5l-5.3-10.4q1.8-9.1 5.5-18.4 3.7-9.4 9.1-17.5 5.7-8.3 13.3-13.4 7.9-5 18.1-5 12.2 0 22 7.7 10 7.7 15.9 23.1 5.9 15.4 5.9 38.9 0 23.1-5.9 40.9-5.7 17.4-16.8 27.1-10.9 9.7-26.8 9.7zm-5.7 0q-9.8 0-19.2-4.7-9.1-5-16.5-16.4-7.2-11.7-11.6-32.8-4.3-21.1-4.3-53.3 0-45.9 6.3-75 6.3-29.5 19.2-43.6 13-14.4 33.1-14.4 7.4 0 14.8 3 7.6 3.1 12.6 8.4 5.2 5.4 5.2 12.7 0 3.4-1.3 6.7-1.3 3.1-2.8 5.1-1.5 2-2.6 2.3-7-14.4-13.5-19.4-6.6-5.4-12.9-5.4-10.6 0-17.8 7.1-7 7-11.4 19.4-4.1 12.1-6.3 27.8-2.1 15.7-3 32.8-.7 17.1-.7 33.9 0 19.4 1.8 36.5 1.7 16.7 5.4 29.8 3.9 13.1 10.2 20.4 6.6 7.1 15.9 7.1 11.1 0 17.5-9.4 6.5-9.7 9.3-25.1 3.1-15.5 3.1-31.9 0-25.4-7.2-40.2-7-14.7-20.7-14.7-9.1 0-16.8 6.4-7.4 6.3-12.8 17.7-5.5 11.4-8.1 26.5l-5.2-10.4q1.7-9.1 5.4-18.4 3.8-9.4 9.2-17.5 5.7-8.3 13.3-13.4 7.8-5 18.1-5 12.1 0 21.9 7.7 10.1 7.7 15.9 23.1 5.9 15.4 5.9 38.9 0 23.1-5.9 40.9-5.6 17.4-16.7 27.1-10.9 9.7-26.8 9.7z"/>
  <path fill="#32643a"
        d="M21.3 187v-13.4h4.5v-90.1h-4.5v-14.9h15l15 102.2 15.3-102.2h14.2v14.9h-4.5v90.1h4.5v13.4h-15.4v-13.4h5.1v-91l-16.6 104.4h-5.3l-16.8-104.6v91.2h4.9v13.4zm-1.7 0v-13.4h4.5v-90.1h-4.5v-14.9h15l15 102.2 15.3-102.2h14.2v14.9h-4.5v90.1h4.5v13.4h-15.4v-13.4h5.1v-91l-16.6 104.4h-5.3l-16.8-104.6v91.2h4.9v13.4z"/>
  <path fill="#32643a"
        d="M210.6 82.1V68.6h18.9v13.5h-5.6v91.5h5.6v13.4h-18.9v-13.4h5.7v-91.5zm-2.1 0V68.6h18.9v13.5h-5.7v91.5h5.7v13.4h-18.9v-13.4h5.6v-91.5z"/>
</svg>

