<svg version="1.2" xmlns="http://www.w3.org/2000/svg" viewBox="0 0 256 256" width="32" height="32">
	<title>MI6d7</title>
	<style>
		.s0 { fill: #ffffff;stroke: #007f7f;stroke-miterlimit:100;stroke-width: 11 } 
		.s1 { fill: #560591 } 
		.s2 { fill: #32643a } 
	</style>
	<path id="Shape 1" fill-rule="evenodd" class="s0" d="m128 252c-68.41 0-123.71-55.3-123.71-123.71 0-68.41 55.3-123.71 123.71-123.71 68.41 0 123.71 55.3 123.71 123.71 0 68.41-55.3 123.71-123.71 123.71z"/>
	<path id="6" class="s1" d="m149.54 240.75q-9.07 0-17.74-4.35-8.47-4.65-15.33-15.2-6.65-10.85-10.68-30.4-4.04-19.54-4.04-49.32 0-42.5 5.85-69.49 5.85-27.3 17.74-40.33 12.1-13.34 30.65-13.34 6.86 0 13.72 2.79 7.05 2.8 11.69 7.76 4.84 4.96 4.84 11.79 0 3.1-1.21 6.2-1.21 2.79-2.62 4.66-1.41 1.86-2.42 2.17-6.45-13.34-12.5-18-6.05-4.96-11.9-4.96-9.88 0-16.53 6.52-6.46 6.51-10.49 17.99-3.83 11.17-5.85 25.75-2.01 14.58-2.82 30.4-0.6 15.82-0.6 31.33 0 17.99 1.61 33.81 1.61 15.51 5.04 27.61 3.63 12.1 9.48 18.93 6.05 6.51 14.72 6.51 10.28 0 16.13-8.69 6.05-8.99 8.67-23.26 2.82-14.27 2.82-29.47 0-23.58-6.65-37.23-6.46-13.65-19.16-13.65-8.47 0-15.53 5.9-6.85 5.89-11.89 16.44-5.04 10.54-7.46 24.5l-4.84-9.61q1.61-8.38 5.04-17.06 3.43-8.69 8.47-16.14 5.24-7.75 12.3-12.4 7.26-4.66 16.73-4.66 11.3 0 20.37 7.14 9.28 7.13 14.72 21.4 5.44 14.27 5.44 35.99 0 21.4-5.44 37.84-5.24 16.13-15.53 25.13-10.08 9-24.8 9zm-5.32 0q-9.07 0-17.74-4.35-8.47-4.65-15.32-15.2-6.66-10.85-10.69-30.4-4.03-19.54-4.03-49.32 0-42.5 5.84-69.49 5.85-27.3 17.75-40.33 12.1-13.34 30.65-13.34 6.85 0 13.71 2.79 7.06 2.8 11.69 7.76 4.84 4.96 4.84 11.79 0 3.1-1.21 6.2-1.21 2.79-2.62 4.66-1.41 1.86-2.42 2.17-6.45-13.34-12.5-18-6.05-4.96-11.9-4.96-9.88 0-16.53 6.52-6.45 6.51-10.49 17.99-3.83 11.17-5.84 25.75-2.02 14.58-2.83 30.4-0.6 15.82-0.6 31.33 0 17.99 1.61 33.81 1.61 15.51 5.04 27.61 3.63 12.1 9.48 18.93 6.05 6.51 14.72 6.51 10.28 0 16.13-8.69 6.05-8.99 8.67-23.26 2.82-14.27 2.82-29.47 0-23.58-6.65-37.23-6.45-13.65-19.16-13.65-8.46 0-15.52 5.9-6.86 5.89-11.9 16.44-5.04 10.54-7.46 24.5l-4.84-9.61q1.61-8.38 5.04-17.06 3.43-8.69 8.47-16.14 5.24-7.75 12.3-12.4 7.26-4.66 16.74-4.66 11.29 0 20.36 7.14 9.28 7.13 14.72 21.4 5.45 14.27 5.45 35.99 0 21.4-5.45 37.84-5.24 16.13-15.52 25.13-10.09 9-24.81 9z"/>
	<path id="M" class="s2" aria-label="M"  d="m31 184v-12.6h4.2v-84.4h-4.2v-14h14l14.1 95.8 14.3-95.8h13.3v14h-4.2v84.4h4.2v12.6h-14.4v-12.6h4.8v-85.3l-15.6 97.9h-4.9l-15.8-98.1v85.5h4.6v12.6zm-1.6 0v-12.6h4.2v-84.4h-4.2v-14h14.1l14.1 95.8 14.2-95.8h13.4v14h-4.2v84.4h4.2v12.6h-14.4v-12.6h4.7v-85.3l-15.5 97.9h-5l-15.7-98.1v85.5h4.5v12.6z"/>
	<path id="I" class="s2" aria-label="I"  d="m203.9 85.6v-12.7h17.7v12.6l-5.3 0.1 0.2 85.7h5.3v12.6h-17.7l-0.1-12.6h5.3l-0.1-85.7zm-2 0v-12.7h17.7v12.6h-5.3l0.2 85.8h5.3v12.6h-17.7l-0.1-12.6h5.3l-0.1-85.7z"/>
</svg>